<?xml version="1.0" encoding="UTF-8"?>
<svg xmlns="http://www.w3.org/2000/svg" xmlns:xlink="http://www.w3.org/1999/xlink" viewBox="0 0 24 24" version="1.1" fill="#fbf9fd"><g id="surface1" fill="#fbf9fd"><path style=" " d="M 15 2 C 13.894531 2 13 2.894531 13 4 C 13 5.105469 13.894531 6 15 6 C 16.105469 6 17 5.105469 17 4 C 17 2.894531 16.105469 2 15 2 Z M 12.09375 6 C 11.292969 6 10.710938 6.601563 7.8125 9.5 C 6.710938 10.601563 6.804688 11.988281 7.90625 12.6875 L 11 14.5 L 11 19 L 13 19 L 13 14.40625 C 13 13.882813 12.722656 13.316406 12.40625 13 L 11.28125 11.875 L 13.5 9.90625 L 15 11.5 C 15.300781 11.898438 15.8125 12.09375 16.3125 12.09375 L 20 12.09375 L 20 10.09375 L 16.90625 10.09375 L 16.90625 10 C 16.605469 10 16.414063 9.886719 16.3125 9.6875 C 13.8125 6.585938 13.394531 6 12.59375 6 Z M 6 14 C 3.800781 14 2 15.800781 2 18 C 2 20.199219 3.800781 22 6 22 C 8.199219 22 10 20.199219 10 18 C 10 15.800781 8.199219 14 6 14 Z M 18 14 C 15.800781 14 14 15.800781 14 18 C 14 20.199219 15.800781 22 18 22 C 20.199219 22 22 20.199219 22 18 C 22 15.800781 20.199219 14 18 14 Z M 6 15.59375 C 7.300781 15.59375 8.40625 16.699219 8.40625 18 C 8.40625 19.300781 7.300781 20.40625 6 20.40625 C 4.699219 20.40625 3.59375 19.300781 3.59375 18 C 3.59375 16.699219 4.699219 15.59375 6 15.59375 Z M 18 15.59375 C 19.300781 15.59375 20.40625 16.699219 20.40625 18 C 20.40625 19.300781 19.300781 20.40625 18 20.40625 C 16.699219 20.40625 15.59375 19.300781 15.59375 18 C 15.59375 16.699219 16.699219 15.59375 18 15.59375 Z " fill="#fbf9fd"/></g></svg>
