<?xml version="1.0" encoding="UTF-8"?>
<svg xmlns="http://www.w3.org/2000/svg" xmlns:xlink="http://www.w3.org/1999/xlink" viewBox="0 0 50 50" version="1.1" fill="#101010" width="50" height="50"><g id="surface1" fill="#101010"><path style=" " d="M 27.5 2 C 25.015625 2 23 4.015625 23 6.5 C 23 8.984375 25.015625 11 27.5 11 C 29.984375 11 32 8.984375 32 6.5 C 32 4.015625 29.984375 2 27.5 2 Z M 23.210938 13 C 22.332031 13 21.476563 13.289063 20.777344 13.824219 L 13.980469 18.28125 C 13.929688 18.3125 13.882813 18.34375 13.835938 18.375 L 13.824219 18.386719 C 13.519531 18.605469 13.285156 18.90625 13.144531 19.253906 L 13.136719 19.269531 L 10.3125 25.929688 C 10.109375 26.25 10 26.621094 10 27 C 10 28.105469 10.894531 29 12 29 C 12.910156 29 13.707031 28.378906 13.933594 27.5 L 16.480469 21.792969 L 21.042969 19.183594 C 20.386719 22.238281 19.15625 27.929688 19.15625 27.929688 L 19.15625 27.949219 C 19.066406 28.285156 19 28.632813 19 29 C 19 29.796875 19.238281 30.539063 19.640625 31.160156 L 19.644531 31.171875 L 19.65625 31.183594 C 19.886719 31.539063 20.183594 31.847656 20.515625 32.109375 L 25.113281 37.078125 L 27 45.542969 C 27.007813 45.878906 27.082031 46.207031 27.21875 46.515625 L 27.230469 46.5625 L 27.238281 46.558594 C 27.648438 47.4375 28.53125 48 29.5 48 C 30.878906 48 32 46.878906 32 45.5 C 32 45.105469 31.90625 44.714844 31.726563 44.363281 L 29.730469 35.351563 L 26 29.003906 L 28.855469 17.503906 C 28.855469 17.503906 28.855469 17.5 28.855469 17.5 C 28.949219 17.175781 29 16.839844 29 16.5 C 29 14.566406 27.433594 13 25.5 13 C 25.492188 13 25.484375 13 25.480469 13 C 25.476563 13 25.476563 13 25.472656 13 Z M 30.972656 16.828125 C 30.964844 16.984375 30.960938 17.136719 30.9375 17.285156 L 29.738281 22.167969 L 31.609375 24.238281 L 37.21875 25.84375 C 37.222656 25.84375 37.222656 25.84375 37.222656 25.84375 L 37.28125 25.863281 L 37.28125 25.859375 C 37.503906 25.949219 37.746094 26 38 26 C 39.105469 26 40 25.105469 40 24 C 40 23.125 39.433594 22.390625 38.65625 22.117188 L 38.65625 22.109375 L 33.667969 20.644531 Z M 18.441406 32.875 L 17.503906 37.578125 L 12.738281 43.722656 C 12.285156 44.175781 12 44.804688 12 45.5 C 12 46.882813 13.117188 48 14.5 48 C 15.417969 48 16.210938 47.5 16.644531 46.765625 L 16.65625 46.769531 L 21.625 40.292969 L 22.519531 36.941406 Z " fill="#101010"/></g></svg>
